<mxfile host="app.diagrams.net" modified="2022-10-14T12:49:00.474Z" agent="5.0 (Linux; Android 10) AppleWebKit/537.36 (KHTML, like Gecko) Chrome/103.0.5060.114 Safari/537.36" etag="WYj_IlihX_PYJymHJYET" version="20.4.1" type="github">
  <diagram id="qhtQPjDR4GYdPBG_F6J3" name="Página-1">
    <mxGraphModel dx="1187.6" dy="499" grid="1" gridSize="10" guides="1" tooltips="1" connect="1" arrows="1" fold="1" page="1" pageScale="0.8" pageWidth="827" pageHeight="1169" math="0" shadow="0">
      <root>
        <mxCell id="0" />
        <mxCell id="1" parent="0" />
        <mxCell id="fwWyzj2W8QwWrXyF9_j2-4" value="" style="edgeStyle=orthogonalEdgeStyle;rounded=0;orthogonalLoop=1;jettySize=auto;html=1;exitX=0;exitY=0.75;exitDx=0;exitDy=0;" edge="1" parent="1" source="fwWyzj2W8QwWrXyF9_j2-2" target="fwWyzj2W8QwWrXyF9_j2-3">
          <mxGeometry relative="1" as="geometry" />
        </mxCell>
        <mxCell id="fwWyzj2W8QwWrXyF9_j2-5" value="Es" style="edgeLabel;html=1;align=center;verticalAlign=middle;resizable=0;points=[];" vertex="1" connectable="0" parent="fwWyzj2W8QwWrXyF9_j2-4">
          <mxGeometry x="0.075" y="1" relative="1" as="geometry">
            <mxPoint as="offset" />
          </mxGeometry>
        </mxCell>
        <mxCell id="fwWyzj2W8QwWrXyF9_j2-42" style="edgeStyle=orthogonalEdgeStyle;rounded=0;orthogonalLoop=1;jettySize=auto;html=1;exitX=0.25;exitY=1;exitDx=0;exitDy=0;entryX=0.5;entryY=0;entryDx=0;entryDy=0;" edge="1" parent="1" source="fwWyzj2W8QwWrXyF9_j2-2" target="fwWyzj2W8QwWrXyF9_j2-23">
          <mxGeometry relative="1" as="geometry" />
        </mxCell>
        <mxCell id="fwWyzj2W8QwWrXyF9_j2-43" value="Tiene" style="edgeLabel;html=1;align=center;verticalAlign=middle;resizable=0;points=[];" vertex="1" connectable="0" parent="fwWyzj2W8QwWrXyF9_j2-42">
          <mxGeometry x="-0.1543" relative="1" as="geometry">
            <mxPoint as="offset" />
          </mxGeometry>
        </mxCell>
        <mxCell id="fwWyzj2W8QwWrXyF9_j2-2" value="MySQL" style="rounded=1;whiteSpace=wrap;html=1;fillColor=#dae8fc;strokeColor=#6c8ebf;" vertex="1" parent="1">
          <mxGeometry x="225.4" y="20" width="120" height="60" as="geometry" />
        </mxCell>
        <mxCell id="fwWyzj2W8QwWrXyF9_j2-7" value="" style="edgeStyle=orthogonalEdgeStyle;rounded=0;orthogonalLoop=1;jettySize=auto;html=1;" edge="1" parent="1" source="fwWyzj2W8QwWrXyF9_j2-3" target="fwWyzj2W8QwWrXyF9_j2-6">
          <mxGeometry relative="1" as="geometry" />
        </mxCell>
        <mxCell id="fwWyzj2W8QwWrXyF9_j2-8" value="Licencia" style="edgeLabel;html=1;align=center;verticalAlign=middle;resizable=0;points=[];" vertex="1" connectable="0" parent="fwWyzj2W8QwWrXyF9_j2-7">
          <mxGeometry x="-0.22" relative="1" as="geometry">
            <mxPoint as="offset" />
          </mxGeometry>
        </mxCell>
        <mxCell id="fwWyzj2W8QwWrXyF9_j2-10" value="" style="edgeStyle=orthogonalEdgeStyle;rounded=0;orthogonalLoop=1;jettySize=auto;html=1;entryX=0.5;entryY=0;entryDx=0;entryDy=0;exitX=0.5;exitY=1;exitDx=0;exitDy=0;" edge="1" parent="1" source="fwWyzj2W8QwWrXyF9_j2-6" target="fwWyzj2W8QwWrXyF9_j2-9">
          <mxGeometry relative="1" as="geometry" />
        </mxCell>
        <mxCell id="fwWyzj2W8QwWrXyF9_j2-11" value="Catalogada" style="edgeLabel;html=1;align=center;verticalAlign=middle;resizable=0;points=[];" vertex="1" connectable="0" parent="fwWyzj2W8QwWrXyF9_j2-10">
          <mxGeometry x="0.34" y="-3" relative="1" as="geometry">
            <mxPoint x="3" y="-7" as="offset" />
          </mxGeometry>
        </mxCell>
        <mxCell id="fwWyzj2W8QwWrXyF9_j2-13" value="" style="edgeStyle=orthogonalEdgeStyle;rounded=0;orthogonalLoop=1;jettySize=auto;html=1;exitX=0.5;exitY=1;exitDx=0;exitDy=0;entryX=0.5;entryY=0;entryDx=0;entryDy=0;" edge="1" parent="1" source="fwWyzj2W8QwWrXyF9_j2-9" target="fwWyzj2W8QwWrXyF9_j2-12">
          <mxGeometry relative="1" as="geometry" />
        </mxCell>
        <mxCell id="fwWyzj2W8QwWrXyF9_j2-14" value="Para" style="edgeLabel;html=1;align=center;verticalAlign=middle;resizable=0;points=[];" vertex="1" connectable="0" parent="fwWyzj2W8QwWrXyF9_j2-13">
          <mxGeometry x="0.5514" y="-3" relative="1" as="geometry">
            <mxPoint x="3" y="-19" as="offset" />
          </mxGeometry>
        </mxCell>
        <mxCell id="fwWyzj2W8QwWrXyF9_j2-16" value="" style="edgeStyle=orthogonalEdgeStyle;rounded=0;orthogonalLoop=1;jettySize=auto;html=1;entryX=0.5;entryY=0;entryDx=0;entryDy=0;exitX=0.5;exitY=1;exitDx=0;exitDy=0;" edge="1" parent="1" source="fwWyzj2W8QwWrXyF9_j2-12" target="fwWyzj2W8QwWrXyF9_j2-15">
          <mxGeometry relative="1" as="geometry" />
        </mxCell>
        <mxCell id="fwWyzj2W8QwWrXyF9_j2-17" value="Versión" style="edgeLabel;html=1;align=center;verticalAlign=middle;resizable=0;points=[];" vertex="1" connectable="0" parent="fwWyzj2W8QwWrXyF9_j2-16">
          <mxGeometry x="0.6595" y="-2" relative="1" as="geometry">
            <mxPoint x="2" y="-20" as="offset" />
          </mxGeometry>
        </mxCell>
        <mxCell id="fwWyzj2W8QwWrXyF9_j2-3" value="Sistema de gestión de bases de datos relacionales" style="rounded=1;whiteSpace=wrap;html=1;fillColor=#d5e8d4;strokeColor=#82b366;" vertex="1" parent="1">
          <mxGeometry x="-165" y="150" width="120" height="60" as="geometry" />
        </mxCell>
        <mxCell id="fwWyzj2W8QwWrXyF9_j2-6" value="Licencia Pública y comercial por Oracle" style="rounded=1;whiteSpace=wrap;html=1;" vertex="1" parent="1">
          <mxGeometry x="-165" y="260" width="120" height="60" as="geometry" />
        </mxCell>
        <mxCell id="fwWyzj2W8QwWrXyF9_j2-9" value="Una de las mas populares del mundo" style="rounded=1;whiteSpace=wrap;html=1;" vertex="1" parent="1">
          <mxGeometry x="-165" y="360" width="120" height="60" as="geometry" />
        </mxCell>
        <mxCell id="fwWyzj2W8QwWrXyF9_j2-12" value="Entornos de desarrollo web" style="rounded=1;whiteSpace=wrap;html=1;" vertex="1" parent="1">
          <mxGeometry x="-165" y="460" width="120" height="60" as="geometry" />
        </mxCell>
        <mxCell id="fwWyzj2W8QwWrXyF9_j2-20" value="Lenguaje" style="edgeStyle=orthogonalEdgeStyle;rounded=0;orthogonalLoop=1;jettySize=auto;html=1;" edge="1" parent="1" source="fwWyzj2W8QwWrXyF9_j2-15" target="fwWyzj2W8QwWrXyF9_j2-19">
          <mxGeometry relative="1" as="geometry" />
        </mxCell>
        <mxCell id="fwWyzj2W8QwWrXyF9_j2-15" value="Última 8.0.29 del 26 de abril de 2022" style="rounded=1;whiteSpace=wrap;html=1;" vertex="1" parent="1">
          <mxGeometry x="-165" y="560" width="120" height="60" as="geometry" />
        </mxCell>
        <mxCell id="fwWyzj2W8QwWrXyF9_j2-22" value="Sistema operativo" style="edgeStyle=orthogonalEdgeStyle;rounded=0;orthogonalLoop=1;jettySize=auto;html=1;" edge="1" parent="1" source="fwWyzj2W8QwWrXyF9_j2-19" target="fwWyzj2W8QwWrXyF9_j2-21">
          <mxGeometry relative="1" as="geometry" />
        </mxCell>
        <mxCell id="fwWyzj2W8QwWrXyF9_j2-19" value="Progamada en c y c++" style="rounded=1;whiteSpace=wrap;html=1;" vertex="1" parent="1">
          <mxGeometry x="-165" y="670" width="120" height="60" as="geometry" />
        </mxCell>
        <mxCell id="fwWyzj2W8QwWrXyF9_j2-21" value="Multiplataforma" style="rounded=1;whiteSpace=wrap;html=1;" vertex="1" parent="1">
          <mxGeometry x="-165" y="780" width="120" height="60" as="geometry" />
        </mxCell>
        <mxCell id="fwWyzj2W8QwWrXyF9_j2-35" value="Son" style="edgeStyle=orthogonalEdgeStyle;rounded=0;orthogonalLoop=1;jettySize=auto;html=1;" edge="1" parent="1" source="fwWyzj2W8QwWrXyF9_j2-23" target="fwWyzj2W8QwWrXyF9_j2-34">
          <mxGeometry relative="1" as="geometry" />
        </mxCell>
        <mxCell id="fwWyzj2W8QwWrXyF9_j2-41" style="edgeStyle=orthogonalEdgeStyle;rounded=0;orthogonalLoop=1;jettySize=auto;html=1;exitX=1;exitY=0.5;exitDx=0;exitDy=0;entryX=0;entryY=0.5;entryDx=0;entryDy=0;" edge="1" parent="1" source="fwWyzj2W8QwWrXyF9_j2-23" target="fwWyzj2W8QwWrXyF9_j2-25">
          <mxGeometry relative="1" as="geometry">
            <Array as="points">
              <mxPoint x="160" y="180" />
              <mxPoint x="160" y="230" />
            </Array>
          </mxGeometry>
        </mxCell>
        <mxCell id="fwWyzj2W8QwWrXyF9_j2-23" value="Modelos" style="rounded=1;whiteSpace=wrap;html=1;fillColor=#d5e8d4;strokeColor=#82b366;" vertex="1" parent="1">
          <mxGeometry x="0.39999999999997726" y="150" width="120" height="60" as="geometry" />
        </mxCell>
        <mxCell id="fwWyzj2W8QwWrXyF9_j2-28" value="" style="edgeStyle=orthogonalEdgeStyle;rounded=0;orthogonalLoop=1;jettySize=auto;html=1;entryX=0;entryY=0.5;entryDx=0;entryDy=0;exitX=1;exitY=0.5;exitDx=0;exitDy=0;" edge="1" parent="1" source="fwWyzj2W8QwWrXyF9_j2-23" target="fwWyzj2W8QwWrXyF9_j2-27">
          <mxGeometry relative="1" as="geometry">
            <Array as="points">
              <mxPoint x="160" y="180" />
              <mxPoint x="160" y="290" />
            </Array>
          </mxGeometry>
        </mxCell>
        <mxCell id="fwWyzj2W8QwWrXyF9_j2-25" value="Jerárquico" style="rounded=1;whiteSpace=wrap;html=1;" vertex="1" parent="1">
          <mxGeometry x="190" y="210" width="100" height="40" as="geometry" />
        </mxCell>
        <mxCell id="fwWyzj2W8QwWrXyF9_j2-30" value="" style="edgeStyle=orthogonalEdgeStyle;rounded=0;orthogonalLoop=1;jettySize=auto;html=1;entryX=0;entryY=0.5;entryDx=0;entryDy=0;exitX=1;exitY=0.5;exitDx=0;exitDy=0;" edge="1" parent="1" source="fwWyzj2W8QwWrXyF9_j2-23" target="fwWyzj2W8QwWrXyF9_j2-29">
          <mxGeometry relative="1" as="geometry">
            <mxPoint x="200" y="450" as="sourcePoint" />
            <Array as="points">
              <mxPoint x="160" y="180" />
              <mxPoint x="160" y="355" />
            </Array>
          </mxGeometry>
        </mxCell>
        <mxCell id="fwWyzj2W8QwWrXyF9_j2-27" value="Red" style="rounded=1;whiteSpace=wrap;html=1;" vertex="1" parent="1">
          <mxGeometry x="190" y="270" width="100" height="40" as="geometry" />
        </mxCell>
        <mxCell id="fwWyzj2W8QwWrXyF9_j2-32" value="Tipos" style="edgeStyle=orthogonalEdgeStyle;rounded=0;orthogonalLoop=1;jettySize=auto;html=1;entryX=0;entryY=0.5;entryDx=0;entryDy=0;exitX=1;exitY=0.5;exitDx=0;exitDy=0;" edge="1" parent="1" source="fwWyzj2W8QwWrXyF9_j2-23" target="fwWyzj2W8QwWrXyF9_j2-31">
          <mxGeometry x="-0.7619" relative="1" as="geometry">
            <mxPoint y="240" as="sourcePoint" />
            <Array as="points">
              <mxPoint x="160" y="180" />
              <mxPoint x="160" y="430" />
            </Array>
            <mxPoint as="offset" />
          </mxGeometry>
        </mxCell>
        <mxCell id="fwWyzj2W8QwWrXyF9_j2-29" value="Orientado a objetos" style="rounded=1;whiteSpace=wrap;html=1;" vertex="1" parent="1">
          <mxGeometry x="190" y="330" width="100" height="50" as="geometry" />
        </mxCell>
        <mxCell id="fwWyzj2W8QwWrXyF9_j2-31" value="Orientado a Documentos" style="rounded=1;whiteSpace=wrap;html=1;" vertex="1" parent="1">
          <mxGeometry x="190" y="410" width="100" height="40" as="geometry" />
        </mxCell>
        <mxCell id="fwWyzj2W8QwWrXyF9_j2-37" value="" style="edgeStyle=orthogonalEdgeStyle;rounded=0;orthogonalLoop=1;jettySize=auto;html=1;" edge="1" parent="1" source="fwWyzj2W8QwWrXyF9_j2-34" target="fwWyzj2W8QwWrXyF9_j2-36">
          <mxGeometry relative="1" as="geometry" />
        </mxCell>
        <mxCell id="fwWyzj2W8QwWrXyF9_j2-39" value="Para" style="edgeLabel;html=1;align=center;verticalAlign=middle;resizable=0;points=[];" vertex="1" connectable="0" parent="fwWyzj2W8QwWrXyF9_j2-37">
          <mxGeometry x="-0.51" y="-4" relative="1" as="geometry">
            <mxPoint as="offset" />
          </mxGeometry>
        </mxCell>
        <mxCell id="fwWyzj2W8QwWrXyF9_j2-34" value="Conjuto de herramientas conceptuales" style="rounded=1;whiteSpace=wrap;html=1;" vertex="1" parent="1">
          <mxGeometry x="0.39999999999997726" y="260" width="120" height="60" as="geometry" />
        </mxCell>
        <mxCell id="fwWyzj2W8QwWrXyF9_j2-36" value="Descripción de los datos y relaciones entre ellos" style="rounded=1;whiteSpace=wrap;html=1;" vertex="1" parent="1">
          <mxGeometry x="0.39999999999997726" y="360" width="120" height="60" as="geometry" />
        </mxCell>
      </root>
    </mxGraphModel>
  </diagram>
</mxfile>
